# xmcd
# 
# Track frame offsets:
#     150
#     16476
#     34741
#     56852
#     81150
#     98744
#     120387
#     133610
#     161793
#     176728
#     198649
#     213295
#     250594
#     267280
#     284590
#     314414
# 
# Disc length: 4446
# 
# Revision: 3
# Processed by: cddbd v1.5.2PL0 Copyright (c) Steve Scherf et al.
# Submitted via: fre:ac v1.0.27
# 
DISCID=e9115c10
DTITLE=Various Artist - Nat and Dag - Disc 2
DYEAR=2008
DGENRE=Jazz
TTITLE0=Cæcilie Norby - Life On Mars
TTITLE1=Bob Rockwell Quartt - Tenderly
TTITLE2=Kynne Ingvordsen - Du Er
TTITLE3=Kasper Villaume - Cloudy and Blue
TTITLE4=Malene Mortensen - If You Gotta Make A Fool Of Somebody
TTITLE5=Thullabandulla Band - Life Is a Car
TTITLE6=Malou - So Breathe
TTITLE7=Jørgen Emborg - My Secret Hideaway
TTITLE8=Tania Maria and Niels Henning Ørsted Pedersen - Bim Bom
TTITLE9=Chris Minh Doky - I Just Wanna Stop
TTITLE10=Palle Mikkelborg - Imagine
TTITLE11=Benjamin Koppel feat. Phil Woods and Alex Riel Trio - Mother's Song
TTITLE12=Radiostar feat. Marie Fisker - Hope You Will Consider It To
TTITLE13=Katrine Madsen and Svante Thuresson - Kom Sæt Dig Her
TTITLE14=Maj-Britt Kramer - Somthing About Heroes
TTITLE15=Jakob Bro - Hometown Melodies
EXTD=YEAR: 2008
EXTT0=
EXTT1=
EXTT2=
EXTT3=
EXTT4=
EXTT5=
EXTT6=
EXTT7=
EXTT8=
EXTT9=
EXTT10=
EXTT11=
EXTT12=
EXTT13=
EXTT14=
EXTT15=
PLAYORDER=
